<svg width="25" height="25" viewBox="0 0 25 25" fill="none" xmlns="http://www.w3.org/2000/svg">
<path fill-rule="evenodd" clip-rule="evenodd" d="M0.183058 0.182997C0.427136 -0.0610805 0.822864 -0.0610805 1.06694 0.182997L7.5 6.61606L13.9331 0.182997C14.1771 -0.0610805 14.5729 -0.0610805 14.8169 0.182997C15.061 0.427075 15.061 0.822803 14.8169 1.06688L8.38388 7.49994L14.8169 13.933C15.061 14.1771 15.061 14.5728 14.8169 14.8169C14.5729 15.061 14.1771 15.061 13.9331 14.8169L7.5 8.38382L1.06694 14.8169C0.822864 15.061 0.427136 15.061 0.183058 14.8169C-0.0610194 14.5728 -0.0610194 14.1771 0.183058 13.933L6.61612 7.49994L0.183058 1.06688C-0.0610194 0.822803 -0.0610194 0.427075 0.183058 0.182997Z" fill="#271A45"/>
</svg>
